# xmcd
#
# Track frame offsets:
#	150
#	10125
#	18657
#	29992
#	41852
#	53609
#	64888
#	73438
#	83367
#	96614
#	108202
#	118777
#	130740
#	141090
#	153362
#	164425
#	176229
#	184901
#	198101
#	208648
#	218970
#	229002
#	239774
#	251587
#	262678
#	272091
#	283791
#	294888
#	305782
#	314886
#
# Disc length: 4334 seconds
#
# Revision: 0
# Processed by: cddbd v1.5.2PL0 Copyright (c) Steve Scherf et al.
# Submitted via: EZCDAudioConverter 1.2.2.1
#
DISCID=d210ec1e
DTITLE=Johnny Otis - Hum-Ding-A-Ling * The 1957-1959 Rock and Roll Recordings
DYEAR=1998
DGENRE=R&B
TTITLE0=Telephone Baby
TTITLE1=Long Tall Sally
TTITLE2=Can't You Hear Me Calling
TTITLE3=Hum-Ding-A-Ling
TTITLE4=Willie And The Hand Jive
TTITLE5=Hey Baby, Don't You Know
TTITLE6=Good Golly
TTITLE7=Castin' My Spell (with Marci Lee)
TTITLE8=Hey! Hey! Hey! Hey!
TTITLE9=Three Girls Named Molly
TTITLE10=Little Angel (with Mel Williams)
TTITLE11=Willie Did The Cha Cha
TTITLE12=Sexy Ways (with The Jayos)
TTITLE13=Crazy Country Hop
TTITLE14=Please Don't Leave Me
TTITLE15=Voodoo Woman
TTITLE16=Ring A Ling
TTITLE17=The Midnight Creeprer (Part 1)
TTITLE18=Baby, Just You
TTITLE19=Well! Well! Well! (with Mel Williams)
TTITLE20=Cold Turkey (instrumental)
TTITLE21=Honey Love (with The Jayos)
TTITLE22=Livin' In Misery
TTITLE23=I'm With You
TTITLE24=Loop De Loop (with Mary Adams)
TTITLE25=The Midnight Creeprer (Part 2)
TTITLE26=Ma (He's Makin' Eyes At Me) (with Mary Adams and The Three Tones Of J
TTITLE26=oy)
TTITLE27=Let The Sun Shine In My Life (Once More)
TTITLE28=Gee (with The Jayos)
TTITLE29=Yea, Yea
EXTD=
EXTT0=
EXTT1=
EXTT2=
EXTT3=
EXTT4=
EXTT5=
EXTT6=
EXTT7=
EXTT8=
EXTT9=
EXTT10=
EXTT11=
EXTT12=
EXTT13=
EXTT14=
EXTT15=
EXTT16=
EXTT17=
EXTT18=
EXTT19=
EXTT20=
EXTT21=
EXTT22=
EXTT23=
EXTT24=
EXTT25=
EXTT26=
EXTT27=
EXTT28=
EXTT29=
PLAYORDER=
